<mxfile host="65bd71144e">
    <diagram id="t2ShYnc-I5zvxJD42cJc" name="페이지-1">
        <mxGraphModel dx="2048" dy="943" grid="1" gridSize="10" guides="1" tooltips="1" connect="1" arrows="1" fold="1" page="1" pageScale="1" pageWidth="827" pageHeight="1169" math="0" shadow="0">
            <root>
                <mxCell id="0"/>
                <mxCell id="1" parent="0"/>
                <mxCell id="3" value="태스크지향 UI" style="text;html=1;strokeColor=none;fillColor=none;align=center;verticalAlign=middle;whiteSpace=wrap;rounded=0;fontStyle=1;fontSize=20;" vertex="1" parent="1">
                    <mxGeometry x="113" y="50" width="186" height="30" as="geometry"/>
                </mxCell>
                <mxCell id="4" value="객체지향 UI" style="text;html=1;strokeColor=none;fillColor=none;align=center;verticalAlign=middle;whiteSpace=wrap;rounded=0;fontStyle=1;fontSize=20;" vertex="1" parent="1">
                    <mxGeometry x="545" y="50" width="170" height="30" as="geometry"/>
                </mxCell>
                <mxCell id="5" value="" style="rounded=0;whiteSpace=wrap;html=1;" vertex="1" parent="1">
                    <mxGeometry x="114" y="110" width="180" height="120" as="geometry"/>
                </mxCell>
                <mxCell id="6" value="" style="ellipse;whiteSpace=wrap;html=1;aspect=fixed;" vertex="1" parent="1">
                    <mxGeometry x="139" y="130" width="50" height="50" as="geometry"/>
                </mxCell>
                <mxCell id="7" value="재생" style="text;html=1;strokeColor=none;fillColor=none;align=center;verticalAlign=middle;whiteSpace=wrap;rounded=0;" vertex="1" parent="1">
                    <mxGeometry x="134" y="180" width="60" height="30" as="geometry"/>
                </mxCell>
                <mxCell id="8" value="편집" style="text;html=1;strokeColor=none;fillColor=none;align=center;verticalAlign=middle;whiteSpace=wrap;rounded=0;" vertex="1" parent="1">
                    <mxGeometry x="214" y="180" width="60" height="30" as="geometry"/>
                </mxCell>
                <mxCell id="9" value="" style="ellipse;whiteSpace=wrap;html=1;aspect=fixed;" vertex="1" parent="1">
                    <mxGeometry x="219" y="130" width="50" height="50" as="geometry"/>
                </mxCell>
                <mxCell id="11" value="" style="rounded=0;whiteSpace=wrap;html=1;" vertex="1" parent="1">
                    <mxGeometry x="234" y="400" width="180" height="120" as="geometry"/>
                </mxCell>
                <mxCell id="12" value="" style="rounded=0;whiteSpace=wrap;html=1;fillColor=#CCCCCC;" vertex="1" parent="1">
                    <mxGeometry x="244" y="426.5" width="50" height="40" as="geometry"/>
                </mxCell>
                <mxCell id="13" value="" style="rounded=0;whiteSpace=wrap;html=1;fillColor=#CCCCCC;" vertex="1" parent="1">
                    <mxGeometry x="299" y="426.5" width="50" height="40" as="geometry"/>
                </mxCell>
                <mxCell id="14" value="" style="rounded=0;whiteSpace=wrap;html=1;fillColor=#CCCCCC;" vertex="1" parent="1">
                    <mxGeometry x="354" y="426.5" width="50" height="40" as="geometry"/>
                </mxCell>
                <mxCell id="15" value="" style="rounded=0;whiteSpace=wrap;html=1;fillColor=#CCCCCC;" vertex="1" parent="1">
                    <mxGeometry x="244" y="471.5" width="50" height="40" as="geometry"/>
                </mxCell>
                <mxCell id="16" value="" style="rounded=0;whiteSpace=wrap;html=1;fillColor=#CCCCCC;" vertex="1" parent="1">
                    <mxGeometry x="299" y="471.5" width="50" height="40" as="geometry"/>
                </mxCell>
                <mxCell id="17" value="" style="rounded=0;whiteSpace=wrap;html=1;fillColor=#CCCCCC;" vertex="1" parent="1">
                    <mxGeometry x="354" y="471.5" width="50" height="40" as="geometry"/>
                </mxCell>
                <mxCell id="22" value="" style="rounded=0;whiteSpace=wrap;html=1;" vertex="1" parent="1">
                    <mxGeometry x="234" y="254" width="180" height="120" as="geometry"/>
                </mxCell>
                <mxCell id="23" value="삭제" style="text;html=1;strokeColor=none;fillColor=none;align=left;verticalAlign=middle;whiteSpace=wrap;rounded=0;" vertex="1" parent="1">
                    <mxGeometry x="255" y="280" width="60" height="30" as="geometry"/>
                </mxCell>
                <mxCell id="24" value="" style="endArrow=none;html=1;" edge="1" parent="1">
                    <mxGeometry width="50" height="50" relative="1" as="geometry">
                        <mxPoint x="254" y="306" as="sourcePoint"/>
                        <mxPoint x="384" y="306" as="targetPoint"/>
                    </mxGeometry>
                </mxCell>
                <mxCell id="25" value="" style="endArrow=none;html=1;" edge="1" parent="1">
                    <mxGeometry width="50" height="50" relative="1" as="geometry">
                        <mxPoint x="255" y="282" as="sourcePoint"/>
                        <mxPoint x="385" y="282" as="targetPoint"/>
                    </mxGeometry>
                </mxCell>
                <mxCell id="26" value="" style="endArrow=none;html=1;" edge="1" parent="1">
                    <mxGeometry width="50" height="50" relative="1" as="geometry">
                        <mxPoint x="254" y="329.58" as="sourcePoint"/>
                        <mxPoint x="384" y="329.58" as="targetPoint"/>
                    </mxGeometry>
                </mxCell>
                <mxCell id="27" value="복사" style="text;html=1;strokeColor=none;fillColor=none;align=left;verticalAlign=middle;whiteSpace=wrap;rounded=0;" vertex="1" parent="1">
                    <mxGeometry x="255" y="305" width="60" height="30" as="geometry"/>
                </mxCell>
                <mxCell id="28" value="편집" style="text;html=1;strokeColor=none;fillColor=none;align=left;verticalAlign=middle;whiteSpace=wrap;rounded=0;" vertex="1" parent="1">
                    <mxGeometry x="239" y="252" width="60" height="30" as="geometry"/>
                </mxCell>
                <mxCell id="29" value="꾸미기" style="text;html=1;strokeColor=none;fillColor=none;align=left;verticalAlign=middle;whiteSpace=wrap;rounded=0;" vertex="1" parent="1">
                    <mxGeometry x="254" y="328" width="60" height="30" as="geometry"/>
                </mxCell>
                <mxCell id="30" value="" style="endArrow=none;html=1;" edge="1" parent="1">
                    <mxGeometry width="50" height="50" relative="1" as="geometry">
                        <mxPoint x="254" y="353.99999999999994" as="sourcePoint"/>
                        <mxPoint x="384" y="353.99999999999994" as="targetPoint"/>
                    </mxGeometry>
                </mxCell>
                <mxCell id="31" value="대상 선택" style="text;html=1;strokeColor=none;fillColor=none;align=left;verticalAlign=middle;whiteSpace=wrap;rounded=0;" vertex="1" parent="1">
                    <mxGeometry x="239" y="400" width="60" height="30" as="geometry"/>
                </mxCell>
                <mxCell id="32" value="" style="rounded=1;whiteSpace=wrap;html=1;fillColor=none;strokeWidth=5;strokeColor=#CC0000;" vertex="1" parent="1">
                    <mxGeometry x="210" y="124" width="70" height="85" as="geometry"/>
                </mxCell>
                <mxCell id="33" value="" style="endArrow=block;html=1;exitX=0.5;exitY=1;exitDx=0;exitDy=0;entryX=0.5;entryY=0;entryDx=0;entryDy=0;strokeColor=#CC0000;strokeWidth=5;endFill=1;" edge="1" parent="1" source="32" target="22">
                    <mxGeometry width="50" height="50" relative="1" as="geometry">
                        <mxPoint x="504" y="230" as="sourcePoint"/>
                        <mxPoint x="554" y="180" as="targetPoint"/>
                    </mxGeometry>
                </mxCell>
                <mxCell id="34" value="" style="rounded=1;whiteSpace=wrap;html=1;fillColor=none;strokeWidth=5;strokeColor=#CC0000;" vertex="1" parent="1">
                    <mxGeometry x="248" y="277.5" width="150" height="32.5" as="geometry"/>
                </mxCell>
                <mxCell id="35" value="" style="endArrow=block;html=1;exitX=0.5;exitY=1;exitDx=0;exitDy=0;entryX=0.5;entryY=0;entryDx=0;entryDy=0;strokeColor=#CC0000;strokeWidth=5;endFill=1;" edge="1" parent="1" source="34" target="11">
                    <mxGeometry width="50" height="50" relative="1" as="geometry">
                        <mxPoint x="375" y="219" as="sourcePoint"/>
                        <mxPoint x="334" y="264" as="targetPoint"/>
                    </mxGeometry>
                </mxCell>
                <mxCell id="44" value="" style="triangle;whiteSpace=wrap;html=1;strokeWidth=1;" vertex="1" parent="1">
                    <mxGeometry x="261.5" y="437.25" width="15" height="18.5" as="geometry"/>
                </mxCell>
                <mxCell id="45" value="" style="triangle;whiteSpace=wrap;html=1;strokeWidth=1;" vertex="1" parent="1">
                    <mxGeometry x="316.5" y="437.25" width="15" height="18.5" as="geometry"/>
                </mxCell>
                <mxCell id="46" value="" style="triangle;whiteSpace=wrap;html=1;strokeWidth=1;" vertex="1" parent="1">
                    <mxGeometry x="371.5" y="437.25" width="15" height="18.5" as="geometry"/>
                </mxCell>
                <mxCell id="47" value="" style="triangle;whiteSpace=wrap;html=1;strokeWidth=1;" vertex="1" parent="1">
                    <mxGeometry x="261.5" y="482.25" width="15" height="18.5" as="geometry"/>
                </mxCell>
                <mxCell id="48" value="" style="triangle;whiteSpace=wrap;html=1;strokeWidth=1;" vertex="1" parent="1">
                    <mxGeometry x="316.5" y="482.25" width="15" height="18.5" as="geometry"/>
                </mxCell>
                <mxCell id="49" value="" style="triangle;whiteSpace=wrap;html=1;strokeWidth=1;" vertex="1" parent="1">
                    <mxGeometry x="371.5" y="482.25" width="15" height="18.5" as="geometry"/>
                </mxCell>
                <mxCell id="50" value="" style="rounded=0;whiteSpace=wrap;html=1;" vertex="1" parent="1">
                    <mxGeometry x="540" y="110" width="180" height="120" as="geometry"/>
                </mxCell>
                <mxCell id="51" value="" style="rounded=0;whiteSpace=wrap;html=1;fillColor=#CCCCCC;" vertex="1" parent="1">
                    <mxGeometry x="550" y="136.5" width="50" height="40" as="geometry"/>
                </mxCell>
                <mxCell id="52" value="" style="rounded=0;whiteSpace=wrap;html=1;fillColor=#CCCCCC;" vertex="1" parent="1">
                    <mxGeometry x="605" y="136.5" width="50" height="40" as="geometry"/>
                </mxCell>
                <mxCell id="53" value="" style="rounded=0;whiteSpace=wrap;html=1;fillColor=#CCCCCC;" vertex="1" parent="1">
                    <mxGeometry x="660" y="136.5" width="50" height="40" as="geometry"/>
                </mxCell>
                <mxCell id="54" value="" style="rounded=0;whiteSpace=wrap;html=1;fillColor=#CCCCCC;" vertex="1" parent="1">
                    <mxGeometry x="550" y="181.5" width="50" height="40" as="geometry"/>
                </mxCell>
                <mxCell id="55" value="" style="rounded=0;whiteSpace=wrap;html=1;fillColor=#CCCCCC;" vertex="1" parent="1">
                    <mxGeometry x="605" y="181.5" width="50" height="40" as="geometry"/>
                </mxCell>
                <mxCell id="56" value="" style="rounded=0;whiteSpace=wrap;html=1;fillColor=#CCCCCC;" vertex="1" parent="1">
                    <mxGeometry x="660" y="181.5" width="50" height="40" as="geometry"/>
                </mxCell>
                <mxCell id="57" value="동영상 리스트" style="text;html=1;strokeColor=none;fillColor=none;align=left;verticalAlign=middle;whiteSpace=wrap;rounded=0;" vertex="1" parent="1">
                    <mxGeometry x="545" y="110" width="85" height="30" as="geometry"/>
                </mxCell>
                <mxCell id="58" value="" style="triangle;whiteSpace=wrap;html=1;strokeWidth=1;" vertex="1" parent="1">
                    <mxGeometry x="567.5" y="147.25" width="15" height="18.5" as="geometry"/>
                </mxCell>
                <mxCell id="59" value="" style="triangle;whiteSpace=wrap;html=1;strokeWidth=1;" vertex="1" parent="1">
                    <mxGeometry x="622.5" y="147.25" width="15" height="18.5" as="geometry"/>
                </mxCell>
                <mxCell id="60" value="" style="triangle;whiteSpace=wrap;html=1;strokeWidth=1;" vertex="1" parent="1">
                    <mxGeometry x="677.5" y="147.25" width="15" height="18.5" as="geometry"/>
                </mxCell>
                <mxCell id="61" value="" style="triangle;whiteSpace=wrap;html=1;strokeWidth=1;" vertex="1" parent="1">
                    <mxGeometry x="567.5" y="192.25" width="15" height="18.5" as="geometry"/>
                </mxCell>
                <mxCell id="62" value="" style="triangle;whiteSpace=wrap;html=1;strokeWidth=1;" vertex="1" parent="1">
                    <mxGeometry x="622.5" y="192.25" width="15" height="18.5" as="geometry"/>
                </mxCell>
                <mxCell id="63" value="" style="triangle;whiteSpace=wrap;html=1;strokeWidth=1;" vertex="1" parent="1">
                    <mxGeometry x="677.5" y="192.25" width="15" height="18.5" as="geometry"/>
                </mxCell>
                <mxCell id="83" value="&lt;font style=&quot;font-size: 12px;&quot;&gt;v&lt;/font&gt;" style="rounded=0;whiteSpace=wrap;html=1;strokeWidth=1;verticalAlign=middle;labelPosition=center;verticalLabelPosition=middle;align=center;horizontal=1;fontSize=12;" vertex="1" parent="1">
                    <mxGeometry x="244" y="426.5" width="10" height="10" as="geometry"/>
                </mxCell>
                <mxCell id="84" value="&lt;font style=&quot;font-size: 12px;&quot;&gt;v&lt;/font&gt;" style="rounded=0;whiteSpace=wrap;html=1;strokeWidth=1;verticalAlign=middle;labelPosition=center;verticalLabelPosition=middle;align=center;horizontal=1;fontSize=12;" vertex="1" parent="1">
                    <mxGeometry x="299" y="426.5" width="10" height="10" as="geometry"/>
                </mxCell>
                <mxCell id="85" value="&lt;font style=&quot;font-size: 12px;&quot;&gt;v&lt;/font&gt;" style="rounded=0;whiteSpace=wrap;html=1;strokeWidth=1;verticalAlign=middle;labelPosition=center;verticalLabelPosition=middle;align=center;horizontal=1;fontSize=12;" vertex="1" parent="1">
                    <mxGeometry x="354" y="426.5" width="10" height="10" as="geometry"/>
                </mxCell>
                <mxCell id="86" value="&lt;font style=&quot;font-size: 12px;&quot;&gt;v&lt;/font&gt;" style="rounded=0;whiteSpace=wrap;html=1;strokeWidth=1;verticalAlign=middle;labelPosition=center;verticalLabelPosition=middle;align=center;horizontal=1;fontSize=12;" vertex="1" parent="1">
                    <mxGeometry x="354" y="471.5" width="10" height="10" as="geometry"/>
                </mxCell>
                <mxCell id="87" value="&lt;font style=&quot;font-size: 12px;&quot;&gt;v&lt;/font&gt;" style="rounded=0;whiteSpace=wrap;html=1;strokeWidth=1;verticalAlign=middle;labelPosition=center;verticalLabelPosition=middle;align=center;horizontal=1;fontSize=12;" vertex="1" parent="1">
                    <mxGeometry x="299" y="471.5" width="10" height="10" as="geometry"/>
                </mxCell>
                <mxCell id="88" value="&lt;font style=&quot;font-size: 12px;&quot;&gt;v&lt;/font&gt;" style="rounded=0;whiteSpace=wrap;html=1;strokeWidth=1;verticalAlign=middle;labelPosition=center;verticalLabelPosition=middle;align=center;horizontal=1;fontSize=12;" vertex="1" parent="1">
                    <mxGeometry x="244" y="471.5" width="10" height="10" as="geometry"/>
                </mxCell>
                <mxCell id="89" value="" style="rounded=1;whiteSpace=wrap;html=1;fillColor=none;strokeWidth=5;strokeColor=#CC0000;" vertex="1" parent="1">
                    <mxGeometry x="129" y="124" width="70" height="85" as="geometry"/>
                </mxCell>
                <mxCell id="90" value="" style="rounded=0;whiteSpace=wrap;html=1;" vertex="1" parent="1">
                    <mxGeometry x="19" y="254" width="180" height="120" as="geometry"/>
                </mxCell>
                <mxCell id="91" value="" style="rounded=0;whiteSpace=wrap;html=1;fillColor=#CCCCCC;" vertex="1" parent="1">
                    <mxGeometry x="29" y="280.5" width="50" height="40" as="geometry"/>
                </mxCell>
                <mxCell id="92" value="" style="rounded=0;whiteSpace=wrap;html=1;fillColor=#CCCCCC;" vertex="1" parent="1">
                    <mxGeometry x="84" y="280.5" width="50" height="40" as="geometry"/>
                </mxCell>
                <mxCell id="93" value="" style="rounded=0;whiteSpace=wrap;html=1;fillColor=#CCCCCC;" vertex="1" parent="1">
                    <mxGeometry x="139" y="280.5" width="50" height="40" as="geometry"/>
                </mxCell>
                <mxCell id="94" value="" style="rounded=0;whiteSpace=wrap;html=1;fillColor=#CCCCCC;" vertex="1" parent="1">
                    <mxGeometry x="29" y="325.5" width="50" height="40" as="geometry"/>
                </mxCell>
                <mxCell id="95" value="" style="rounded=0;whiteSpace=wrap;html=1;fillColor=#CCCCCC;" vertex="1" parent="1">
                    <mxGeometry x="84" y="325.5" width="50" height="40" as="geometry"/>
                </mxCell>
                <mxCell id="96" value="" style="rounded=0;whiteSpace=wrap;html=1;fillColor=#CCCCCC;" vertex="1" parent="1">
                    <mxGeometry x="139" y="325.5" width="50" height="40" as="geometry"/>
                </mxCell>
                <mxCell id="97" value="동영상 리스트" style="text;html=1;strokeColor=none;fillColor=none;align=left;verticalAlign=middle;whiteSpace=wrap;rounded=0;" vertex="1" parent="1">
                    <mxGeometry x="24" y="254" width="85" height="30" as="geometry"/>
                </mxCell>
                <mxCell id="98" value="" style="triangle;whiteSpace=wrap;html=1;strokeWidth=1;" vertex="1" parent="1">
                    <mxGeometry x="46.5" y="291.25" width="15" height="18.5" as="geometry"/>
                </mxCell>
                <mxCell id="99" value="" style="triangle;whiteSpace=wrap;html=1;strokeWidth=1;" vertex="1" parent="1">
                    <mxGeometry x="101.5" y="291.25" width="15" height="18.5" as="geometry"/>
                </mxCell>
                <mxCell id="100" value="" style="triangle;whiteSpace=wrap;html=1;strokeWidth=1;" vertex="1" parent="1">
                    <mxGeometry x="156.5" y="291.25" width="15" height="18.5" as="geometry"/>
                </mxCell>
                <mxCell id="101" value="" style="triangle;whiteSpace=wrap;html=1;strokeWidth=1;" vertex="1" parent="1">
                    <mxGeometry x="46.5" y="336.25" width="15" height="18.5" as="geometry"/>
                </mxCell>
                <mxCell id="102" value="" style="triangle;whiteSpace=wrap;html=1;strokeWidth=1;" vertex="1" parent="1">
                    <mxGeometry x="101.5" y="336.25" width="15" height="18.5" as="geometry"/>
                </mxCell>
                <mxCell id="103" value="" style="triangle;whiteSpace=wrap;html=1;strokeWidth=1;" vertex="1" parent="1">
                    <mxGeometry x="156.5" y="336.25" width="15" height="18.5" as="geometry"/>
                </mxCell>
                <mxCell id="104" value="" style="endArrow=block;html=1;exitX=0.5;exitY=1;exitDx=0;exitDy=0;entryX=0.5;entryY=0;entryDx=0;entryDy=0;strokeColor=#CC0000;strokeWidth=5;endFill=1;" edge="1" parent="1" source="89" target="90">
                    <mxGeometry width="50" height="50" relative="1" as="geometry">
                        <mxPoint x="255" y="219" as="sourcePoint"/>
                        <mxPoint x="334" y="264" as="targetPoint"/>
                    </mxGeometry>
                </mxCell>
                <mxCell id="106" value="" style="rounded=0;whiteSpace=wrap;html=1;fillColor=#CCCCCC;" vertex="1" parent="1">
                    <mxGeometry x="19" y="400" width="180" height="120" as="geometry"/>
                </mxCell>
                <mxCell id="107" value="" style="rounded=1;whiteSpace=wrap;html=1;fontSize=12;strokeWidth=1;arcSize=6;" vertex="1" parent="1">
                    <mxGeometry x="113.5" y="491.5" width="30" height="20" as="geometry"/>
                </mxCell>
                <mxCell id="108" value="" style="rounded=1;whiteSpace=wrap;html=1;fontSize=12;strokeWidth=1;arcSize=6;" vertex="1" parent="1">
                    <mxGeometry x="151" y="491.5" width="30" height="20" as="geometry"/>
                </mxCell>
                <mxCell id="110" value="" style="rounded=1;whiteSpace=wrap;html=1;fontSize=12;strokeWidth=1;arcSize=6;" vertex="1" parent="1">
                    <mxGeometry x="76" y="491.5" width="30" height="20" as="geometry"/>
                </mxCell>
                <mxCell id="111" value="" style="rounded=1;whiteSpace=wrap;html=1;fontSize=12;strokeWidth=1;arcSize=6;" vertex="1" parent="1">
                    <mxGeometry x="36" y="491.5" width="30" height="20" as="geometry"/>
                </mxCell>
                <mxCell id="112" value="" style="triangle;whiteSpace=wrap;html=1;fontSize=12;strokeWidth=1;" vertex="1" parent="1">
                    <mxGeometry x="122.5" y="494" width="12" height="15" as="geometry"/>
                </mxCell>
                <mxCell id="113" value="" style="triangle;whiteSpace=wrap;html=1;fontSize=12;strokeWidth=1;" vertex="1" parent="1">
                    <mxGeometry x="158" y="494" width="12" height="15" as="geometry"/>
                </mxCell>
                <mxCell id="114" value="" style="triangle;whiteSpace=wrap;html=1;fontSize=12;strokeWidth=1;" vertex="1" parent="1">
                    <mxGeometry x="164" y="494" width="12" height="15" as="geometry"/>
                </mxCell>
                <mxCell id="115" value="" style="triangle;whiteSpace=wrap;html=1;fontSize=12;strokeWidth=1;rotation=-180;" vertex="1" parent="1">
                    <mxGeometry x="86" y="494" width="12" height="15" as="geometry"/>
                </mxCell>
                <mxCell id="116" value="" style="triangle;whiteSpace=wrap;html=1;fontSize=12;strokeWidth=1;rotation=-180;" vertex="1" parent="1">
                    <mxGeometry x="80" y="494" width="12" height="15" as="geometry"/>
                </mxCell>
                <mxCell id="118" value="" style="rounded=0;whiteSpace=wrap;html=1;fontSize=12;strokeWidth=1;" vertex="1" parent="1">
                    <mxGeometry x="44" y="496" width="12" height="12" as="geometry"/>
                </mxCell>
                <mxCell id="119" value="" style="rounded=0;whiteSpace=wrap;html=1;fontSize=12;strokeWidth=1;" vertex="1" parent="1">
                    <mxGeometry x="22" y="404" width="12" height="12" as="geometry"/>
                </mxCell>
                <mxCell id="122" value="" style="endArrow=none;html=1;fontSize=12;strokeColor=#000000;strokeWidth=1;" edge="1" parent="1">
                    <mxGeometry width="50" height="50" relative="1" as="geometry">
                        <mxPoint x="23" y="415" as="sourcePoint"/>
                        <mxPoint x="33" y="405" as="targetPoint"/>
                    </mxGeometry>
                </mxCell>
                <mxCell id="123" value="" style="endArrow=none;html=1;fontSize=12;strokeColor=#000000;strokeWidth=1;" edge="1" parent="1">
                    <mxGeometry width="50" height="50" relative="1" as="geometry">
                        <mxPoint x="23" y="405" as="sourcePoint"/>
                        <mxPoint x="33" y="415" as="targetPoint"/>
                    </mxGeometry>
                </mxCell>
                <mxCell id="124" value="" style="rounded=1;whiteSpace=wrap;html=1;fillColor=none;strokeWidth=5;strokeColor=#CC0000;" vertex="1" parent="1">
                    <mxGeometry x="24" y="275" width="60" height="50" as="geometry"/>
                </mxCell>
                <mxCell id="125" value="" style="endArrow=block;html=1;exitX=0.5;exitY=1;exitDx=0;exitDy=0;entryX=0.5;entryY=0;entryDx=0;entryDy=0;strokeColor=#CC0000;strokeWidth=5;endFill=1;" edge="1" parent="1" source="124" target="106">
                    <mxGeometry width="50" height="50" relative="1" as="geometry">
                        <mxPoint x="174" y="219" as="sourcePoint"/>
                        <mxPoint x="119" y="264" as="targetPoint"/>
                    </mxGeometry>
                </mxCell>
                <mxCell id="126" value="다중 선택" style="rounded=1;whiteSpace=wrap;html=1;fontSize=12;strokeWidth=1;arcSize=6;" vertex="1" parent="1">
                    <mxGeometry x="652" y="114" width="60" height="18" as="geometry"/>
                </mxCell>
                <mxCell id="127" value="" style="rounded=0;whiteSpace=wrap;html=1;fillColor=#CCCCCC;" vertex="1" parent="1">
                    <mxGeometry x="450" y="252" width="180" height="120" as="geometry"/>
                </mxCell>
                <mxCell id="128" value="" style="rounded=1;whiteSpace=wrap;html=1;fontSize=12;strokeWidth=1;arcSize=6;" vertex="1" parent="1">
                    <mxGeometry x="544.5" y="343.5" width="30" height="20" as="geometry"/>
                </mxCell>
                <mxCell id="129" value="" style="rounded=1;whiteSpace=wrap;html=1;fontSize=12;strokeWidth=1;arcSize=6;" vertex="1" parent="1">
                    <mxGeometry x="582" y="343.5" width="30" height="20" as="geometry"/>
                </mxCell>
                <mxCell id="130" value="" style="rounded=1;whiteSpace=wrap;html=1;fontSize=12;strokeWidth=1;arcSize=6;" vertex="1" parent="1">
                    <mxGeometry x="507" y="343.5" width="30" height="20" as="geometry"/>
                </mxCell>
                <mxCell id="131" value="" style="rounded=1;whiteSpace=wrap;html=1;fontSize=12;strokeWidth=1;arcSize=6;" vertex="1" parent="1">
                    <mxGeometry x="467" y="343.5" width="30" height="20" as="geometry"/>
                </mxCell>
                <mxCell id="132" value="" style="triangle;whiteSpace=wrap;html=1;fontSize=12;strokeWidth=1;" vertex="1" parent="1">
                    <mxGeometry x="553.5" y="346" width="12" height="15" as="geometry"/>
                </mxCell>
                <mxCell id="133" value="" style="triangle;whiteSpace=wrap;html=1;fontSize=12;strokeWidth=1;" vertex="1" parent="1">
                    <mxGeometry x="589" y="346" width="12" height="15" as="geometry"/>
                </mxCell>
                <mxCell id="134" value="" style="triangle;whiteSpace=wrap;html=1;fontSize=12;strokeWidth=1;" vertex="1" parent="1">
                    <mxGeometry x="595" y="346" width="12" height="15" as="geometry"/>
                </mxCell>
                <mxCell id="135" value="" style="triangle;whiteSpace=wrap;html=1;fontSize=12;strokeWidth=1;rotation=-180;" vertex="1" parent="1">
                    <mxGeometry x="517" y="346" width="12" height="15" as="geometry"/>
                </mxCell>
                <mxCell id="136" value="" style="triangle;whiteSpace=wrap;html=1;fontSize=12;strokeWidth=1;rotation=-180;" vertex="1" parent="1">
                    <mxGeometry x="511" y="346" width="12" height="15" as="geometry"/>
                </mxCell>
                <mxCell id="137" value="" style="rounded=0;whiteSpace=wrap;html=1;fontSize=12;strokeWidth=1;" vertex="1" parent="1">
                    <mxGeometry x="475" y="348" width="12" height="12" as="geometry"/>
                </mxCell>
                <mxCell id="138" value="" style="rounded=0;whiteSpace=wrap;html=1;fontSize=12;strokeWidth=1;" vertex="1" parent="1">
                    <mxGeometry x="453" y="256" width="12" height="12" as="geometry"/>
                </mxCell>
                <mxCell id="139" value="" style="endArrow=none;html=1;fontSize=12;strokeColor=#000000;strokeWidth=1;" edge="1" parent="1">
                    <mxGeometry width="50" height="50" relative="1" as="geometry">
                        <mxPoint x="454" y="267" as="sourcePoint"/>
                        <mxPoint x="464" y="257" as="targetPoint"/>
                    </mxGeometry>
                </mxCell>
                <mxCell id="140" value="" style="endArrow=none;html=1;fontSize=12;strokeColor=#000000;strokeWidth=1;" edge="1" parent="1">
                    <mxGeometry width="50" height="50" relative="1" as="geometry">
                        <mxPoint x="454" y="257" as="sourcePoint"/>
                        <mxPoint x="464" y="267" as="targetPoint"/>
                    </mxGeometry>
                </mxCell>
                <mxCell id="141" value="" style="rounded=1;whiteSpace=wrap;html=1;fillColor=none;strokeWidth=5;strokeColor=#CC0000;" vertex="1" parent="1">
                    <mxGeometry x="545" y="131.5" width="60" height="50" as="geometry"/>
                </mxCell>
                <mxCell id="142" value="" style="endArrow=block;html=1;exitX=0.5;exitY=1;exitDx=0;exitDy=0;entryX=0.5;entryY=0;entryDx=0;entryDy=0;strokeColor=#CC0000;strokeWidth=5;endFill=1;" edge="1" parent="1" source="141" target="127">
                    <mxGeometry width="50" height="50" relative="1" as="geometry">
                        <mxPoint x="64" y="335" as="sourcePoint"/>
                        <mxPoint x="119" y="410" as="targetPoint"/>
                    </mxGeometry>
                </mxCell>
                <mxCell id="143" value="" style="rounded=0;whiteSpace=wrap;html=1;" vertex="1" parent="1">
                    <mxGeometry x="637.5" y="252" width="180" height="120" as="geometry"/>
                </mxCell>
                <mxCell id="144" value="" style="rounded=0;whiteSpace=wrap;html=1;fillColor=#CCCCCC;" vertex="1" parent="1">
                    <mxGeometry x="647.5" y="261.5" width="50" height="40" as="geometry"/>
                </mxCell>
                <mxCell id="145" value="" style="rounded=0;whiteSpace=wrap;html=1;fillColor=#CCCCCC;" vertex="1" parent="1">
                    <mxGeometry x="702.5" y="261.5" width="50" height="40" as="geometry"/>
                </mxCell>
                <mxCell id="146" value="" style="rounded=0;whiteSpace=wrap;html=1;fillColor=#CCCCCC;" vertex="1" parent="1">
                    <mxGeometry x="757.5" y="261.5" width="50" height="40" as="geometry"/>
                </mxCell>
                <mxCell id="147" value="" style="rounded=0;whiteSpace=wrap;html=1;fillColor=#CCCCCC;" vertex="1" parent="1">
                    <mxGeometry x="647.5" y="306.5" width="50" height="40" as="geometry"/>
                </mxCell>
                <mxCell id="148" value="" style="rounded=0;whiteSpace=wrap;html=1;fillColor=#CCCCCC;" vertex="1" parent="1">
                    <mxGeometry x="702.5" y="306.5" width="50" height="40" as="geometry"/>
                </mxCell>
                <mxCell id="149" value="" style="rounded=0;whiteSpace=wrap;html=1;fillColor=#CCCCCC;" vertex="1" parent="1">
                    <mxGeometry x="757.5" y="306.5" width="50" height="40" as="geometry"/>
                </mxCell>
                <mxCell id="151" value="" style="triangle;whiteSpace=wrap;html=1;strokeWidth=1;" vertex="1" parent="1">
                    <mxGeometry x="665" y="272.25" width="15" height="18.5" as="geometry"/>
                </mxCell>
                <mxCell id="152" value="" style="triangle;whiteSpace=wrap;html=1;strokeWidth=1;" vertex="1" parent="1">
                    <mxGeometry x="720" y="272.25" width="15" height="18.5" as="geometry"/>
                </mxCell>
                <mxCell id="153" value="" style="triangle;whiteSpace=wrap;html=1;strokeWidth=1;" vertex="1" parent="1">
                    <mxGeometry x="775" y="272.25" width="15" height="18.5" as="geometry"/>
                </mxCell>
                <mxCell id="154" value="" style="triangle;whiteSpace=wrap;html=1;strokeWidth=1;" vertex="1" parent="1">
                    <mxGeometry x="665" y="317.25" width="15" height="18.5" as="geometry"/>
                </mxCell>
                <mxCell id="155" value="" style="triangle;whiteSpace=wrap;html=1;strokeWidth=1;" vertex="1" parent="1">
                    <mxGeometry x="720" y="317.25" width="15" height="18.5" as="geometry"/>
                </mxCell>
                <mxCell id="156" value="" style="triangle;whiteSpace=wrap;html=1;strokeWidth=1;" vertex="1" parent="1">
                    <mxGeometry x="775" y="317.25" width="15" height="18.5" as="geometry"/>
                </mxCell>
                <mxCell id="157" value="&lt;font style=&quot;font-size: 12px;&quot;&gt;v&lt;/font&gt;" style="rounded=0;whiteSpace=wrap;html=1;strokeWidth=1;verticalAlign=middle;labelPosition=center;verticalLabelPosition=middle;align=center;horizontal=1;fontSize=12;" vertex="1" parent="1">
                    <mxGeometry x="647.5" y="261.5" width="10" height="10" as="geometry"/>
                </mxCell>
                <mxCell id="158" value="&lt;font style=&quot;font-size: 12px;&quot;&gt;v&lt;/font&gt;" style="rounded=0;whiteSpace=wrap;html=1;strokeWidth=1;verticalAlign=middle;labelPosition=center;verticalLabelPosition=middle;align=center;horizontal=1;fontSize=12;" vertex="1" parent="1">
                    <mxGeometry x="702.5" y="261.5" width="10" height="10" as="geometry"/>
                </mxCell>
                <mxCell id="159" value="&lt;font style=&quot;font-size: 12px;&quot;&gt;v&lt;/font&gt;" style="rounded=0;whiteSpace=wrap;html=1;strokeWidth=1;verticalAlign=middle;labelPosition=center;verticalLabelPosition=middle;align=center;horizontal=1;fontSize=12;" vertex="1" parent="1">
                    <mxGeometry x="757.5" y="261.5" width="10" height="10" as="geometry"/>
                </mxCell>
                <mxCell id="160" value="&lt;font style=&quot;font-size: 12px;&quot;&gt;v&lt;/font&gt;" style="rounded=0;whiteSpace=wrap;html=1;strokeWidth=1;verticalAlign=middle;labelPosition=center;verticalLabelPosition=middle;align=center;horizontal=1;fontSize=12;" vertex="1" parent="1">
                    <mxGeometry x="757.5" y="306.5" width="10" height="10" as="geometry"/>
                </mxCell>
                <mxCell id="161" value="&lt;font style=&quot;font-size: 12px;&quot;&gt;v&lt;/font&gt;" style="rounded=0;whiteSpace=wrap;html=1;strokeWidth=1;verticalAlign=middle;labelPosition=center;verticalLabelPosition=middle;align=center;horizontal=1;fontSize=12;" vertex="1" parent="1">
                    <mxGeometry x="702.5" y="306.5" width="10" height="10" as="geometry"/>
                </mxCell>
                <mxCell id="162" value="&lt;font style=&quot;font-size: 12px;&quot;&gt;v&lt;/font&gt;" style="rounded=0;whiteSpace=wrap;html=1;strokeWidth=1;verticalAlign=middle;labelPosition=center;verticalLabelPosition=middle;align=center;horizontal=1;fontSize=12;" vertex="1" parent="1">
                    <mxGeometry x="647.5" y="306.5" width="10" height="10" as="geometry"/>
                </mxCell>
                <mxCell id="165" value="" style="endArrow=none;html=1;fontSize=12;strokeColor=#000000;strokeWidth=1;" edge="1" parent="1">
                    <mxGeometry width="50" height="50" relative="1" as="geometry">
                        <mxPoint x="641.5" y="351" as="sourcePoint"/>
                        <mxPoint x="814" y="351" as="targetPoint"/>
                    </mxGeometry>
                </mxCell>
                <mxCell id="166" value="취소&amp;nbsp; &amp;nbsp; 삭제&amp;nbsp; &amp;nbsp; 복사&amp;nbsp; &amp;nbsp; 꾸미기" style="text;html=1;strokeColor=none;fillColor=none;align=center;verticalAlign=middle;whiteSpace=wrap;rounded=0;fontSize=12;" vertex="1" parent="1">
                    <mxGeometry x="650" y="348" width="160" height="30" as="geometry"/>
                </mxCell>
                <mxCell id="167" value="" style="rounded=1;whiteSpace=wrap;html=1;fillColor=none;strokeWidth=5;strokeColor=#CC0000;" vertex="1" parent="1">
                    <mxGeometry x="646.5" y="108" width="72.5" height="30" as="geometry"/>
                </mxCell>
                <mxCell id="168" value="" style="endArrow=block;html=1;exitX=0.5;exitY=1;exitDx=0;exitDy=0;entryX=0.5;entryY=0;entryDx=0;entryDy=0;strokeColor=#CC0000;strokeWidth=5;endFill=1;" edge="1" parent="1" source="167" target="143">
                    <mxGeometry width="50" height="50" relative="1" as="geometry">
                        <mxPoint x="585" y="191.5" as="sourcePoint"/>
                        <mxPoint x="550" y="262" as="targetPoint"/>
                    </mxGeometry>
                </mxCell>
                <mxCell id="169" value="" style="endArrow=none;html=1;fontSize=20;strokeColor=#000000;strokeWidth=1;" edge="1" parent="1">
                    <mxGeometry width="50" height="50" relative="1" as="geometry">
                        <mxPoint x="430" y="530" as="sourcePoint"/>
                        <mxPoint x="430" y="30" as="targetPoint"/>
                    </mxGeometry>
                </mxCell>
            </root>
        </mxGraphModel>
    </diagram>
</mxfile>